<mxfile host="app.diagrams.net" agent="Mozilla/5.0 (Windows NT 10.0; Win64; x64) AppleWebKit/537.36 (KHTML, like Gecko) Chrome/138.0.0.0 Safari/537.36" version="28.0.7">
  <diagram name="PÃ¡gina-1" id="tF2xsh58VgDLkNbd-CUR">
    <mxGraphModel dx="1226" dy="661" grid="1" gridSize="10" guides="1" tooltips="1" connect="1" arrows="1" fold="1" page="1" pageScale="1" pageWidth="827" pageHeight="1169" math="0" shadow="0">
      <root>
        <mxCell id="0" />
        <mxCell id="1" parent="0" />
        <mxCell id="MaSwG0RCxl-BvRUTXJQb-15" style="edgeStyle=orthogonalEdgeStyle;rounded=0;orthogonalLoop=1;jettySize=auto;html=1;exitX=0.5;exitY=1;exitDx=0;exitDy=0;endArrow=block;endFill=0;endSize=20;" edge="1" parent="1" source="MaSwG0RCxl-BvRUTXJQb-5" target="MaSwG0RCxl-BvRUTXJQb-6">
          <mxGeometry relative="1" as="geometry" />
        </mxCell>
        <mxCell id="MaSwG0RCxl-BvRUTXJQb-5" value="&lt;p style=&quot;margin:0px;margin-top:4px;text-align:center;&quot;&gt;&lt;b&gt;CustomArgs&lt;/b&gt;&lt;/p&gt;&lt;hr size=&quot;1&quot; style=&quot;border-style:solid;&quot;&gt;&lt;p style=&quot;margin:0px;margin-left:4px;&quot;&gt;+ Inventario: Inventario&lt;/p&gt;&lt;p style=&quot;margin:0px;margin-left:4px;&quot;&gt;+ Orden: Orden&lt;/p&gt;&lt;hr size=&quot;1&quot; style=&quot;border-style:solid;&quot;&gt;&lt;p style=&quot;margin:0px;margin-left:4px;&quot;&gt;+CustomArgs(Inventario inventario, Orden orden)&lt;/p&gt;" style="verticalAlign=top;align=left;overflow=fill;html=1;whiteSpace=wrap;" vertex="1" parent="1">
          <mxGeometry x="35" y="165" width="160" height="110" as="geometry" />
        </mxCell>
        <mxCell id="MaSwG0RCxl-BvRUTXJQb-6" value="&lt;p style=&quot;margin: 4px 0px 0px; text-align: center;&quot;&gt;&lt;i&gt;&lt;font style=&quot;font-size: 10px;&quot;&gt;&amp;lt;&amp;lt;.NET Framework&amp;gt;&amp;gt;&lt;/font&gt;&lt;/i&gt;&lt;/p&gt;&lt;p style=&quot;margin: 4px 0px 0px; text-align: center;&quot;&gt;&lt;b&gt;EventArgs&lt;/b&gt;&lt;/p&gt;&lt;hr size=&quot;1&quot; style=&quot;border-style:solid;&quot;&gt;&lt;p style=&quot;margin:0px;margin-left:8px;&quot;&gt;&lt;br&gt;&lt;/p&gt;" style="verticalAlign=top;align=left;overflow=fill;html=1;whiteSpace=wrap;" vertex="1" parent="1">
          <mxGeometry x="35" y="330" width="110" height="60" as="geometry" />
        </mxCell>
        <mxCell id="MaSwG0RCxl-BvRUTXJQb-23" style="edgeStyle=orthogonalEdgeStyle;rounded=0;orthogonalLoop=1;jettySize=auto;html=1;exitX=0;exitY=0.5;exitDx=0;exitDy=0;entryX=0.5;entryY=0;entryDx=0;entryDy=0;endSize=20;endArrow=diamondThin;endFill=1;" edge="1" parent="1" source="MaSwG0RCxl-BvRUTXJQb-7" target="MaSwG0RCxl-BvRUTXJQb-5">
          <mxGeometry relative="1" as="geometry" />
        </mxCell>
        <mxCell id="MaSwG0RCxl-BvRUTXJQb-7" value="&lt;p style=&quot;margin:0px;margin-top:4px;text-align:center;&quot;&gt;&lt;span style=&quot;background-color: transparent; text-align: left;&quot;&gt;&lt;b&gt;Orden&lt;/b&gt;&lt;/span&gt;&lt;/p&gt;&lt;hr size=&quot;1&quot; style=&quot;border-style:solid;&quot;&gt;&lt;p style=&quot;margin:0px;margin-left:4px;&quot;&gt;+IngredienteO : Ingrediente&lt;/p&gt;&lt;p style=&quot;margin:0px;margin-left:4px;&quot;&gt;+NombreOrden : string&lt;/p&gt;&lt;p style=&quot;margin:0px;margin-left:4px;&quot;&gt;+Duracion : int&lt;/p&gt;&lt;hr size=&quot;1&quot; style=&quot;border-style:solid;&quot;&gt;&lt;p style=&quot;margin:0px;margin-left:4px;&quot;&gt;+Orden(Ingrediente Ingrediente, string Nombre, int Duracion)&lt;/p&gt;" style="verticalAlign=top;align=left;overflow=fill;html=1;whiteSpace=wrap;" vertex="1" parent="1">
          <mxGeometry x="223" y="60" width="190" height="120" as="geometry" />
        </mxCell>
        <mxCell id="MaSwG0RCxl-BvRUTXJQb-8" value="&lt;p style=&quot;margin: 4px 0px 0px; text-align: center;&quot;&gt;&lt;i&gt;&amp;lt;&amp;lt;enumeration&amp;gt;&amp;gt;&lt;/i&gt;&lt;/p&gt;&lt;p style=&quot;margin: 4px 0px 0px; text-align: center;&quot;&gt;&lt;b style=&quot;&quot;&gt;Estado&lt;/b&gt;&lt;/p&gt;&lt;hr size=&quot;1&quot; style=&quot;border-style:solid;&quot;&gt;&lt;p style=&quot;margin:0px;margin-left:8px;&quot;&gt;Principal&lt;/p&gt;&lt;p style=&quot;margin:0px;margin-left:8px;&quot;&gt;Secundario&lt;/p&gt;&lt;p style=&quot;margin:0px;margin-left:8px;&quot;&gt;Decorativo&lt;/p&gt;" style="verticalAlign=top;align=left;overflow=fill;html=1;whiteSpace=wrap;" vertex="1" parent="1">
          <mxGeometry x="800" y="40" width="110" height="110" as="geometry" />
        </mxCell>
        <mxCell id="MaSwG0RCxl-BvRUTXJQb-19" style="edgeStyle=orthogonalEdgeStyle;rounded=0;orthogonalLoop=1;jettySize=auto;html=1;exitX=0.5;exitY=1;exitDx=0;exitDy=0;entryX=0.5;entryY=0;entryDx=0;entryDy=0;endSize=20;endArrow=diamondThin;endFill=1;" edge="1" parent="1" source="MaSwG0RCxl-BvRUTXJQb-9" target="MaSwG0RCxl-BvRUTXJQb-16">
          <mxGeometry relative="1" as="geometry" />
        </mxCell>
        <mxCell id="MaSwG0RCxl-BvRUTXJQb-21" style="edgeStyle=orthogonalEdgeStyle;rounded=0;orthogonalLoop=1;jettySize=auto;html=1;exitX=0;exitY=0.5;exitDx=0;exitDy=0;entryX=1;entryY=0.5;entryDx=0;entryDy=0;endSize=20;endArrow=diamondThin;endFill=1;" edge="1" parent="1" source="MaSwG0RCxl-BvRUTXJQb-9" target="MaSwG0RCxl-BvRUTXJQb-7">
          <mxGeometry relative="1" as="geometry" />
        </mxCell>
        <mxCell id="MaSwG0RCxl-BvRUTXJQb-9" value="&lt;p style=&quot;margin:0px;margin-top:4px;text-align:center;&quot;&gt;&lt;b&gt;Ingrediente&lt;/b&gt;&lt;/p&gt;&lt;hr size=&quot;1&quot; style=&quot;border-style:solid;&quot;&gt;&lt;p style=&quot;margin:0px;margin-left:4px;&quot;&gt;-_fechaVencimiento : DateTime&lt;/p&gt;&lt;p style=&quot;margin:0px;margin-left:4px;&quot;&gt;-_nombre : String&lt;/p&gt;&lt;p style=&quot;margin:0px;margin-left:4px;&quot;&gt;+FechaVencimiento : DateTime&lt;/p&gt;&lt;p style=&quot;margin:0px;margin-left:4px;&quot;&gt;+Nombre : String&lt;/p&gt;&lt;p style=&quot;margin:0px;margin-left:4px;&quot;&gt;+Peso : double&lt;/p&gt;&lt;p style=&quot;margin:0px;margin-left:4px;&quot;&gt;+Descripcion : String&lt;/p&gt;&lt;p style=&quot;margin:0px;margin-left:4px;&quot;&gt;+Estado_ : Estado&lt;/p&gt;&lt;hr size=&quot;1&quot; style=&quot;border-style:solid;&quot;&gt;&lt;p style=&quot;margin:0px;margin-left:4px;&quot;&gt;+Ingrediente()&lt;/p&gt;&lt;p style=&quot;margin:0px;margin-left:4px;&quot;&gt;+Imprimirse() string&lt;/p&gt;" style="verticalAlign=top;align=left;overflow=fill;html=1;whiteSpace=wrap;" vertex="1" parent="1">
          <mxGeometry x="530" y="30" width="160" height="210" as="geometry" />
        </mxCell>
        <mxCell id="MaSwG0RCxl-BvRUTXJQb-24" style="edgeStyle=orthogonalEdgeStyle;rounded=0;orthogonalLoop=1;jettySize=auto;html=1;exitX=1;exitY=0.5;exitDx=0;exitDy=0;entryX=1;entryY=0.75;entryDx=0;entryDy=0;dashed=1;dashPattern=8 8;endArrow=open;endFill=0;" edge="1" parent="1" source="MaSwG0RCxl-BvRUTXJQb-10" target="MaSwG0RCxl-BvRUTXJQb-5">
          <mxGeometry relative="1" as="geometry" />
        </mxCell>
        <mxCell id="MaSwG0RCxl-BvRUTXJQb-10" value="&lt;p style=&quot;margin:0px;margin-top:4px;text-align:center;&quot;&gt;&lt;b&gt;Chef&lt;/b&gt;&lt;/p&gt;&lt;hr size=&quot;1&quot; style=&quot;border-style:solid;&quot;&gt;&lt;p style=&quot;margin:0px;margin-left:4px;&quot;&gt;&lt;br&gt;&lt;/p&gt;&lt;hr size=&quot;1&quot; style=&quot;border-style:solid;&quot;&gt;&lt;p style=&quot;margin:0px;margin-left:4px;&quot;&gt;+EventHandler_OrdenLista(object sender, CustomArgs c) void&lt;/p&gt;" style="verticalAlign=top;align=left;overflow=fill;html=1;whiteSpace=wrap;" vertex="1" parent="1">
          <mxGeometry x="35" y="430" width="200" height="90" as="geometry" />
        </mxCell>
        <mxCell id="MaSwG0RCxl-BvRUTXJQb-11" value="&lt;p style=&quot;margin:0px;margin-top:4px;text-align:center;&quot;&gt;&lt;b&gt;IDArgs&lt;/b&gt;&lt;/p&gt;&lt;hr size=&quot;1&quot; style=&quot;border-style:solid;&quot;&gt;&lt;p style=&quot;margin:0px;margin-left:4px;&quot;&gt;+ID : string&lt;/p&gt;&lt;hr size=&quot;1&quot; style=&quot;border-style:solid;&quot;&gt;&lt;p style=&quot;margin:0px;margin-left:4px;&quot;&gt;&lt;br&gt;&lt;/p&gt;" style="verticalAlign=top;align=left;overflow=fill;html=1;whiteSpace=wrap;" vertex="1" parent="1">
          <mxGeometry x="70" y="570" width="110" height="70" as="geometry" />
        </mxCell>
        <mxCell id="MaSwG0RCxl-BvRUTXJQb-25" style="edgeStyle=orthogonalEdgeStyle;rounded=0;orthogonalLoop=1;jettySize=auto;html=1;exitX=0;exitY=0.5;exitDx=0;exitDy=0;dashed=1;dashPattern=8 8;endArrow=open;endFill=0;" edge="1" parent="1" source="MaSwG0RCxl-BvRUTXJQb-12" target="MaSwG0RCxl-BvRUTXJQb-7">
          <mxGeometry relative="1" as="geometry">
            <mxPoint x="310" y="200" as="targetPoint" />
          </mxGeometry>
        </mxCell>
        <mxCell id="MaSwG0RCxl-BvRUTXJQb-28" style="edgeStyle=orthogonalEdgeStyle;rounded=0;orthogonalLoop=1;jettySize=auto;html=1;exitX=0;exitY=0.75;exitDx=0;exitDy=0;entryX=1;entryY=0.5;entryDx=0;entryDy=0;endArrow=open;endFill=0;" edge="1" parent="1" source="MaSwG0RCxl-BvRUTXJQb-12" target="MaSwG0RCxl-BvRUTXJQb-10">
          <mxGeometry relative="1" as="geometry" />
        </mxCell>
        <mxCell id="MaSwG0RCxl-BvRUTXJQb-12" value="&lt;p style=&quot;margin:0px;margin-top:4px;text-align:center;&quot;&gt;&lt;b&gt;Administrador&lt;/b&gt;&lt;/p&gt;&lt;hr size=&quot;1&quot; style=&quot;border-style:solid;&quot;&gt;&lt;p style=&quot;margin:0px;margin-left:4px;&quot;&gt;+Inventario_ : Inventario&lt;/p&gt;&lt;p style=&quot;margin:0px;margin-left:4px;&quot;&gt;+event EventHandler&amp;lt;CustomArgs&amp;gt; Orden_Lista&lt;/p&gt;&lt;p style=&quot;margin:0px;margin-left:4px;&quot;&gt;+event EventHandler&amp;gt;IDArgs&amp;gt; Sesion_Iniciada&lt;/p&gt;&lt;hr size=&quot;1&quot; style=&quot;border-style:solid;&quot;&gt;&lt;p style=&quot;margin:0px;margin-left:4px;&quot;&gt;+Administrador(Inventario inventario)&lt;/p&gt;&lt;p style=&quot;margin:0px;margin-left:4px;&quot;&gt;#On_OrdenLista(Orden ordenE, Inventario invTrabajar) void&lt;/p&gt;&lt;p style=&quot;margin:0px;margin-left:4px;&quot;&gt;#On_SesionIniciada(string id) void&lt;/p&gt;&lt;p style=&quot;margin:0px;margin-left:4px;&quot;&gt;+EscogerMenu() void&lt;/p&gt;&lt;p style=&quot;margin:0px;margin-left:4px;&quot;&gt;-MostrarMenuTrabajador(string ID) void&lt;/p&gt;&lt;p style=&quot;margin:0px;margin-left:4px;&quot;&gt;-MostrarMenuCliente() void&lt;/p&gt;&lt;p style=&quot;margin:0px;margin-left:4px;&quot;&gt;-ValidarEntrada(String ID) bool&lt;/p&gt;&lt;p style=&quot;margin:0px;margin-left:4px;&quot;&gt;-LeerEntrada() string&lt;/p&gt;" style="verticalAlign=top;align=left;overflow=fill;html=1;whiteSpace=wrap;" vertex="1" parent="1">
          <mxGeometry x="370" y="290" width="280" height="220" as="geometry" />
        </mxCell>
        <mxCell id="MaSwG0RCxl-BvRUTXJQb-26" style="edgeStyle=orthogonalEdgeStyle;rounded=0;orthogonalLoop=1;jettySize=auto;html=1;exitX=0;exitY=0.5;exitDx=0;exitDy=0;endArrow=open;endFill=0;dashed=1;dashPattern=8 8;" edge="1" parent="1" source="MaSwG0RCxl-BvRUTXJQb-14" target="MaSwG0RCxl-BvRUTXJQb-11">
          <mxGeometry relative="1" as="geometry" />
        </mxCell>
        <mxCell id="MaSwG0RCxl-BvRUTXJQb-14" value="&lt;p style=&quot;margin:0px;margin-top:4px;text-align:center;&quot;&gt;&lt;b&gt;Pizzeria&lt;/b&gt;&lt;/p&gt;&lt;hr size=&quot;1&quot; style=&quot;border-style:solid;&quot;&gt;&lt;p style=&quot;margin:0px;margin-left:4px;&quot;&gt;+ID : string&lt;/p&gt;&lt;hr size=&quot;1&quot; style=&quot;border-style:solid;&quot;&gt;&lt;p style=&quot;margin:0px;margin-left:4px;&quot;&gt;+EventHandler_SesionIniciada(object sender, IDArgs id_) void&lt;/p&gt;" style="verticalAlign=top;align=left;overflow=fill;html=1;whiteSpace=wrap;" vertex="1" parent="1">
          <mxGeometry x="280" y="560" width="228" height="90" as="geometry" />
        </mxCell>
        <mxCell id="MaSwG0RCxl-BvRUTXJQb-17" style="edgeStyle=orthogonalEdgeStyle;rounded=0;orthogonalLoop=1;jettySize=auto;html=1;exitX=0.5;exitY=1;exitDx=0;exitDy=0;entryX=0.991;entryY=0.538;entryDx=0;entryDy=0;endArrow=diamondThin;endFill=1;endSize=20;entryPerimeter=0;" edge="1" parent="1" source="MaSwG0RCxl-BvRUTXJQb-16" target="MaSwG0RCxl-BvRUTXJQb-12">
          <mxGeometry relative="1" as="geometry" />
        </mxCell>
        <mxCell id="MaSwG0RCxl-BvRUTXJQb-35" style="edgeStyle=orthogonalEdgeStyle;rounded=0;orthogonalLoop=1;jettySize=auto;html=1;exitX=0;exitY=0.25;exitDx=0;exitDy=0;entryX=1;entryY=0.5;entryDx=0;entryDy=0;endArrow=diamondThin;endFill=1;endSize=15;" edge="1" parent="1" source="MaSwG0RCxl-BvRUTXJQb-16" target="MaSwG0RCxl-BvRUTXJQb-5">
          <mxGeometry relative="1" as="geometry">
            <Array as="points">
              <mxPoint x="770" y="280" />
              <mxPoint x="500" y="280" />
              <mxPoint x="500" y="220" />
            </Array>
          </mxGeometry>
        </mxCell>
        <mxCell id="MaSwG0RCxl-BvRUTXJQb-16" value="&lt;p style=&quot;margin:0px;margin-top:4px;text-align:center;&quot;&gt;&lt;b&gt;Inventario&lt;/b&gt;&lt;/p&gt;&lt;hr size=&quot;1&quot; style=&quot;border-style:solid;&quot;&gt;&lt;p style=&quot;margin:0px;margin-left:4px;&quot;&gt;-Ingredientes : List&amp;lt;Ingrediente&amp;gt;&lt;/p&gt;&lt;hr size=&quot;1&quot; style=&quot;border-style:solid;&quot;&gt;&lt;p style=&quot;margin:0px;margin-left:4px;&quot;&gt;+Inventario()&lt;/p&gt;&lt;p style=&quot;margin:0px;margin-left:4px;&quot;&gt;+AgregarIng() void&lt;/p&gt;&lt;p style=&quot;margin:0px;margin-left:4px;&quot;&gt;+EliminarIng() void&lt;/p&gt;&lt;p style=&quot;margin:0px;margin-left:4px;&quot;&gt;+EliminarIngChef(Ingrediente ingEliminar) void&lt;/p&gt;&lt;p style=&quot;margin:0px;margin-left:4px;&quot;&gt;+ContarIng() void&lt;/p&gt;&lt;p style=&quot;margin:0px;margin-left:4px;&quot;&gt;-ContarPor&amp;lt;T&amp;gt;(string tipo, Func&amp;lt;Ingrediente,T&amp;gt; selecionaAtributoCont) void&lt;/p&gt;&lt;p style=&quot;margin:0px;margin-left:4px;&quot;&gt;-Contar_enGeneral() void&lt;/p&gt;&lt;p style=&quot;margin:0px;margin-left:4px;&quot;&gt;+FiltrarIng() void&lt;/p&gt;&lt;p style=&quot;margin:0px;margin-left:4px;&quot;&gt;-Filtrar_porAtributo(string atributoF) List&amp;lt;Ingrediente&amp;gt;&lt;/p&gt;&lt;p style=&quot;margin:0px;margin-left:4px;&quot;&gt;+VerIng() void&lt;/p&gt;&lt;p style=&quot;margin:0px;margin-left:4px;&quot;&gt;+BuscarIng() void&lt;/p&gt;&lt;p style=&quot;margin:0px;margin-left:4px;&quot;&gt;+BuscarIngChef(Ingrediente ingBuscar) bool&lt;/p&gt;&lt;p style=&quot;margin:0px;margin-left:4px;&quot;&gt;+InfoPesosIng() void&lt;/p&gt;&lt;p style=&quot;margin:0px;margin-left:4px;&quot;&gt;+OrdenarIng() void&lt;/p&gt;&lt;p style=&quot;margin:0px;margin-left:4px;&quot;&gt;-Ordenar_porAtributo(string atributoO) List&amp;lt;Ingrediente&amp;gt;&lt;/p&gt;&lt;p style=&quot;margin:0px;margin-left:4px;&quot;&gt;+ExportarDatosInventario() void&lt;/p&gt;" style="verticalAlign=top;align=left;overflow=fill;html=1;whiteSpace=wrap;" vertex="1" parent="1">
          <mxGeometry x="770" y="275" width="310" height="310" as="geometry" />
        </mxCell>
        <mxCell id="MaSwG0RCxl-BvRUTXJQb-20" style="edgeStyle=orthogonalEdgeStyle;rounded=0;orthogonalLoop=1;jettySize=auto;html=1;exitX=0;exitY=0.5;exitDx=0;exitDy=0;entryX=0.996;entryY=0.37;entryDx=0;entryDy=0;entryPerimeter=0;endSize=20;endArrow=diamondThin;endFill=1;" edge="1" parent="1" source="MaSwG0RCxl-BvRUTXJQb-8" target="MaSwG0RCxl-BvRUTXJQb-9">
          <mxGeometry relative="1" as="geometry" />
        </mxCell>
        <mxCell id="MaSwG0RCxl-BvRUTXJQb-27" style="edgeStyle=orthogonalEdgeStyle;rounded=0;orthogonalLoop=1;jettySize=auto;html=1;exitX=0.75;exitY=1;exitDx=0;exitDy=0;entryX=1.003;entryY=0.59;entryDx=0;entryDy=0;entryPerimeter=0;endArrow=open;endFill=0;" edge="1" parent="1" source="MaSwG0RCxl-BvRUTXJQb-12" target="MaSwG0RCxl-BvRUTXJQb-14">
          <mxGeometry relative="1" as="geometry" />
        </mxCell>
        <mxCell id="MaSwG0RCxl-BvRUTXJQb-30" style="edgeStyle=orthogonalEdgeStyle;rounded=0;orthogonalLoop=1;jettySize=auto;html=1;exitX=0.5;exitY=1;exitDx=0;exitDy=0;" edge="1" parent="1">
          <mxGeometry relative="1" as="geometry">
            <mxPoint x="730" y="640" as="sourcePoint" />
            <mxPoint x="730" y="640" as="targetPoint" />
          </mxGeometry>
        </mxCell>
        <mxCell id="MaSwG0RCxl-BvRUTXJQb-38" value="notifica via eventos" style="text;whiteSpace=wrap;fillColor=#f5f5f5;fontColor=#333333;strokeColor=#666666;fontStyle=2;align=center;strokeWidth=0;" vertex="1" parent="1">
          <mxGeometry x="273" y="480" width="90" height="40" as="geometry" />
        </mxCell>
        <mxCell id="MaSwG0RCxl-BvRUTXJQb-39" value="notifica via eventos" style="text;whiteSpace=wrap;fillColor=#f5f5f5;fontColor=#333333;strokeColor=#666666;fontStyle=2;align=center;strokeWidth=0;" vertex="1" parent="1">
          <mxGeometry x="565" y="610" width="90" height="40" as="geometry" />
        </mxCell>
      </root>
    </mxGraphModel>
  </diagram>
</mxfile>
